<?xml version="1.0" encoding="utf-8"?>
<svg viewBox="0 0 30 30" width="30px" height="30px" xmlns="http://www.w3.org/2000/svg">
  <path d="M 17.786 10.811 C 17.228 10.811 16.669 10.873 16.126 10.996 L 16.412 8.171 C 16.439 7.9 16.35 7.635 16.169 7.435 C 15.985 7.231 15.723 7.116 15.446 7.116 C 15.404 7.116 15.365 7.119 15.323 7.124 C 12.751 7.447 10.81 9.633 10.81 12.214 C 10.81 12.773 10.872 13.331 10.995 13.874 L 8.17 13.586 L 8.147 13.586 L 8.073 13.583 C 7.8 13.583 7.538 13.703 7.357 13.907 C 7.173 14.119 7.088 14.399 7.122 14.676 C 7.446 17.248 9.632 19.188 12.213 19.188 C 12.772 19.188 13.33 19.127 13.873 19.003 L 13.588 21.829 C 13.561 22.099 13.649 22.365 13.831 22.565 C 14.046 22.8 14.361 22.915 14.678 22.877 C 17.249 22.553 19.189 20.367 19.189 17.786 C 19.189 17.228 19.127 16.669 19.004 16.126 L 21.83 16.411 L 21.853 16.411 L 21.927 16.415 C 22.2 16.415 22.462 16.296 22.639 16.092 C 22.827 15.88 22.912 15.599 22.877 15.322 C 22.553 12.752 20.367 10.811 17.786 10.811 Z M 17.596 14.997 L 17.861 15.733 C 18.088 16.356 18.204 17.049 18.204 17.788 C 18.204 19.871 16.633 21.638 14.57 21.93 L 15.005 17.594 L 14.27 17.86 C 13.646 18.087 12.952 18.203 12.213 18.203 C 10.131 18.203 8.364 16.632 8.071 14.568 L 12.408 15.004 L 12.107 14.271 C 11.91 13.645 11.769 12.952 11.769 12.213 C 11.769 10.134 13.328 8.369 15.399 8.104 L 14.996 12.407 L 15.732 12.141 C 16.355 11.914 17.048 11.799 17.788 11.799 C 19.87 11.799 21.637 13.369 21.929 15.432 L 17.596 14.997 Z M 14.999 14.233 C 14.591 14.233 14.26 14.565 14.26 14.973 C 14.26 15.38 14.591 15.711 14.999 15.711 C 15.406 15.711 15.738 15.38 15.738 14.973 C 15.738 14.565 15.406 14.233 14.999 14.233 Z" style="fill: rgb(161, 149, 123);"/>
</svg>