<?xml version="1.0" encoding="utf-8"?>
<svg viewBox="0 0 30 30" width="30px" height="30px" xmlns="http://www.w3.org/2000/svg">
  <path d="M 19.428 10.593 C 19.644 10.66 19.865 10.676 20.061 10.689 C 20.244 10.701 20.451 10.715 20.534 10.774 C 20.615 10.83 20.689 11.004 20.759 11.171 C 20.834 11.348 20.918 11.548 21.052 11.725 C 21.185 11.9 21.356 12.036 21.506 12.156 C 21.646 12.268 21.803 12.394 21.834 12.483 C 21.859 12.561 21.81 12.752 21.771 12.906 C 21.721 13.094 21.667 13.305 21.667 13.534 C 21.667 13.761 21.722 13.974 21.77 14.162 C 21.81 14.316 21.859 14.508 21.835 14.584 C 21.804 14.675 21.646 14.802 21.505 14.914 C 21.355 15.034 21.186 15.169 21.053 15.344 C 20.919 15.521 20.835 15.721 20.76 15.897 C 20.689 16.065 20.616 16.239 20.536 16.295 C 20.452 16.353 20.244 16.368 20.061 16.38 C 19.866 16.393 19.643 16.409 19.429 16.476 C 19.171 16.557 19.028 16.83 19.108 17.088 C 19.174 17.297 19.367 17.431 19.575 17.431 C 19.624 17.431 19.672 17.424 19.721 17.408 C 19.825 17.376 19.973 17.366 20.128 17.355 C 20.437 17.334 20.788 17.31 21.096 17.096 C 21.408 16.878 21.547 16.545 21.66 16.277 C 21.717 16.142 21.771 16.014 21.831 15.935 C 21.89 15.857 21.999 15.77 22.115 15.677 C 22.348 15.492 22.637 15.262 22.76 14.899 C 22.879 14.545 22.79 14.197 22.717 13.918 C 22.68 13.772 22.644 13.638 22.644 13.534 C 22.644 13.43 22.679 13.294 22.716 13.15 C 22.788 12.87 22.878 12.522 22.759 12.168 C 22.636 11.808 22.347 11.577 22.115 11.392 C 21.999 11.3 21.89 11.212 21.829 11.133 C 21.77 11.053 21.716 10.926 21.659 10.791 C 21.546 10.524 21.407 10.19 21.094 9.971 C 20.788 9.758 20.437 9.734 20.127 9.713 C 19.972 9.702 19.825 9.692 19.72 9.66 C 19.626 9.631 19.507 9.558 19.381 9.482 C 19.126 9.328 18.811 9.137 18.42 9.137 C 18.03 9.137 17.714 9.328 17.46 9.482 C 17.334 9.558 17.215 9.631 17.121 9.66 C 17.017 9.692 16.87 9.702 16.716 9.713 C 16.609 9.72 16.505 9.728 16.402 9.741 C 16.135 9.776 15.946 10.021 15.981 10.289 C 16.017 10.557 16.262 10.741 16.53 10.71 C 16.612 10.7 16.697 10.694 16.782 10.688 C 16.977 10.674 17.198 10.659 17.413 10.593 C 17.62 10.528 17.804 10.416 17.966 10.318 C 18.131 10.218 18.304 10.114 18.42 10.114 C 18.536 10.114 18.71 10.218 18.876 10.318 C 19.037 10.416 19.22 10.526 19.428 10.593 Z M 11.58 14.023 C 10.234 14.023 9.137 15.119 9.137 16.465 C 9.137 17.812 10.234 18.908 11.58 18.908 C 12.927 18.908 14.023 17.812 14.023 16.465 C 14.023 15.119 12.927 14.023 11.58 14.023 Z M 11.58 17.931 C 10.771 17.931 10.115 17.275 10.115 16.465 C 10.115 15.656 10.771 15 11.58 15 C 12.389 15 13.046 15.656 13.046 16.465 C 13.046 17.275 12.389 17.931 11.58 17.931 Z M 11.58 10.114 C 8.072 10.114 5.229 12.957 5.229 16.465 C 5.229 19.974 8.072 22.817 11.58 22.817 C 15.088 22.817 17.932 19.974 17.932 16.465 C 17.932 12.957 15.089 10.114 11.58 10.114 Z M 11.58 21.84 C 8.591 21.84 6.206 19.428 6.206 16.465 C 6.206 13.503 8.591 11.091 11.58 11.091 C 14.57 11.091 16.955 13.476 16.955 16.465 C 16.955 19.455 14.542 21.84 11.58 21.84 Z M 18.42 7.182 C 16.872 7.182 15.38 7.747 14.219 8.77 C 14.017 8.949 13.999 9.258 14.176 9.46 C 14.353 9.663 14.662 9.681 14.866 9.503 C 15.846 8.637 17.11 8.16 18.42 8.16 C 21.386 8.16 23.795 10.545 23.795 13.534 C 23.795 16.309 21.631 18.661 18.869 18.89 C 18.6 18.912 18.401 19.149 18.423 19.417 C 18.444 19.672 18.658 19.866 18.909 19.866 C 18.923 19.866 18.936 19.865 18.95 19.865 C 22.216 19.596 24.772 16.813 24.772 13.534 C 24.772 10.032 21.923 7.182 18.42 7.182 Z M 9.626 13.534 C 9.895 13.534 10.115 13.314 10.115 13.045 C 10.115 12.776 9.896 12.557 9.626 12.557 C 9.356 12.557 9.137 12.776 9.137 13.045 C 9.137 13.314 9.358 13.534 9.626 13.534 Z M 7.672 15 C 7.402 15 7.183 15.219 7.183 15.488 C 7.183 15.757 7.402 15.977 7.672 15.977 C 7.941 15.977 8.16 15.757 8.16 15.488 C 8.16 15.219 7.941 15 7.672 15 Z M 12.557 19.886 C 12.289 19.886 12.069 20.105 12.069 20.374 C 12.069 20.642 12.289 20.863 12.557 20.863 C 12.827 20.863 13.046 20.642 13.046 20.374 C 13.046 20.105 12.827 19.886 12.557 19.886 Z M 14.512 18.908 C 14.243 18.908 14.023 19.128 14.023 19.397 C 14.023 19.665 14.243 19.886 14.512 19.886 C 14.781 19.886 15 19.667 15 19.397 C 15 19.128 14.781 18.908 14.512 18.908 Z M 15 14.023 C 14.732 14.023 14.512 14.242 14.512 14.511 C 14.512 14.78 14.732 15 15 15 C 15.269 15 15.489 14.781 15.489 14.511 C 15.489 14.242 15.269 14.023 15 14.023 Z M 8.649 18.908 C 8.38 18.908 8.16 19.128 8.16 19.397 C 8.16 19.665 8.38 19.886 8.649 19.886 C 8.918 19.886 9.137 19.665 9.137 19.397 C 9.137 19.128 8.918 18.908 8.649 18.908 Z" style="fill: rgb(161, 149, 123);"/>
</svg>