<?xml version="1.0" encoding="utf-8"?>
<svg viewBox="0 0 30 30" width="30" height="30" xmlns="http://www.w3.org/2000/svg" xmlns:bx="https://boxy-svg.com">
  <g id="surface1" transform="matrix(0.720358, 0, 0, 0.721834, 4.194631, 6.353512)" style="" bx:origin="0.340804 0.5">
    <path style=" stroke:none;fill-rule:nonzero;fill:rgb(0%,0%,0%);fill-opacity:1;" d="M 29.793 7.734 C 26.047 3.773 20.656 1.5 15 1.5 C 9.344 1.5 3.953 3.773 0.207 7.734 C -0.078 8.035 -0.066 8.511 0.234 8.793 C 0.535 9.078 1.008 9.066 1.293 8.765 C 4.758 5.101 9.754 3 15 3 C 20.246 3 25.242 5.101 28.707 8.765 C 28.852 8.921 29.055 9 29.25 9 C 29.434 9 29.621 8.933 29.766 8.796 C 30.066 8.511 30.078 8.035 29.793 7.734 Z M 15 8.957 C 11.356 8.957 7.969 10.371 5.465 12.933 C 5.176 13.269 5.18 13.75 5.477 14.035 C 5.774 14.324 6.25 14.316 6.535 14.023 C 8.758 11.75 11.762 10.5 15 10.5 C 18.238 10.5 21.242 11.75 23.465 14.023 C 23.609 14.175 23.805 14.25 24 14.25 C 24.188 14.25 24.379 14.179 24.524 14.035 C 24.82 13.746 24.828 13.273 24.535 12.976 C 22.031 10.41 18.649 8.957 15 8.957 Z M 14.957 16.457 C 13.301 16.457 11.957 17.8 11.957 19.457 C 11.957 21.117 13.301 22.457 14.957 22.457 C 16.613 22.457 17.957 21.117 17.957 19.457 C 17.957 17.8 16.656 16.457 14.957 16.457 Z M 15 21 C 14.172 21 13.5 20.328 13.5 19.5 C 13.5 18.671 14.176 18 15 18 C 15.824 18 16.5 18.671 16.5 19.5 C 16.5 20.328 15.824 21 15 21 Z M 15 21"/>
  </g>
</svg>