<?xml version="1.0" encoding="utf-8"?>
<svg viewBox="0 0 30 30" width="30px" height="30px" xmlns="http://www.w3.org/2000/svg">
  <path d="M 21.834 16.151 C 21.351 16.151 21.025 16.528 21.212 16.87 L 23.472 21.021 C 23.58 21.22 23.833 21.34 24.095 21.34 C 24.182 21.34 24.27 21.327 24.356 21.299 C 24.7 21.189 24.861 20.885 24.717 20.62 L 22.457 16.499 C 22.353 16.278 22.108 16.151 21.834 16.151 Z M 5.923 20.62 C 5.779 20.885 5.94 21.189 6.284 21.299 C 6.369 21.327 6.458 21.34 6.545 21.34 C 6.809 21.34 7.059 21.22 7.167 21.022 L 9.426 16.871 C 9.612 16.527 9.287 16.151 8.806 16.151 C 8.534 16.151 8.288 16.278 8.183 16.469 L 5.923 20.62 Z M 25.445 14.076 L 21.15 14.076 L 18.891 9.925 L 22.745 9.925 C 23.116 9.925 23.42 9.693 23.42 9.406 C 23.42 9.119 23.116 8.887 22.745 8.887 L 7.895 8.887 C 7.522 8.887 7.22 9.119 7.22 9.406 C 7.22 9.693 7.522 9.925 7.895 9.925 L 11.747 9.925 L 9.49 14.076 L 5.195 14.076 C 4.822 14.076 4.52 14.309 4.52 14.595 C 4.52 14.88 4.822 15.114 5.195 15.114 L 25.445 15.114 C 25.816 15.114 26.12 14.88 26.12 14.595 C 26.12 14.309 25.816 14.076 25.445 14.076 Z M 10.949 14.076 L 13.21 9.925 L 17.429 9.925 L 19.689 14.076 L 10.949 14.076 Z" style="fill: rgb(161, 149, 123);"/>
</svg>
