<?xml version="1.0" encoding="utf-8"?>
<svg viewBox="0 0 30 24" xmlns="http://www.w3.org/2000/svg">
  <path d="M 21.514 13.037 C 21.031 13.037 20.705 13.414 20.892 13.756 L 23.152 17.907 C 23.26 18.106 23.513 18.226 23.775 18.226 C 23.862 18.226 23.95 18.213 24.036 18.185 C 24.38 18.075 24.541 17.771 24.397 17.506 L 22.137 13.385 C 22.033 13.164 21.788 13.037 21.514 13.037 Z M 5.603 17.506 C 5.459 17.771 5.62 18.075 5.964 18.185 C 6.049 18.213 6.138 18.226 6.225 18.226 C 6.489 18.226 6.739 18.106 6.847 17.908 L 9.106 13.757 C 9.292 13.413 8.967 13.037 8.486 13.037 C 8.214 13.037 7.968 13.164 7.863 13.355 L 5.603 17.506 Z M 25.125 10.962 L 20.83 10.962 L 18.571 6.811 L 22.425 6.811 C 22.796 6.811 23.1 6.579 23.1 6.292 C 23.1 6.005 22.796 5.773 22.425 5.773 L 7.575 5.773 C 7.202 5.773 6.9 6.005 6.9 6.292 C 6.9 6.579 7.202 6.811 7.575 6.811 L 11.427 6.811 L 9.17 10.962 L 4.875 10.962 C 4.502 10.962 4.2 11.195 4.2 11.481 C 4.2 11.766 4.502 12 4.875 12 L 25.125 12 C 25.496 12 25.8 11.766 25.8 11.481 C 25.8 11.195 25.496 10.962 25.125 10.962 Z M 10.629 10.962 L 12.89 6.811 L 17.109 6.811 L 19.369 10.962 L 10.629 10.962 Z" style="fill: rgb(161, 149, 123);"/>
</svg>