<?xml version="1.0" encoding="utf-8"?>
<svg viewBox="0 0 30 30" width="30px" height="30px" xmlns="http://www.w3.org/2000/svg">
  <path d="M 19.313 14.997 L 18.257 15.001 C 17.66 15.001 17.172 15.489 17.172 16.087 L 17.172 21.514 C 17.172 22.112 17.66 22.602 18.257 22.602 L 19.343 22.602 C 20.545 22.601 21.516 21.626 21.516 20.425 L 21.516 17.175 C 21.516 15.975 20.545 14.997 19.313 14.997 Z M 20.43 20.425 C 20.43 21.022 19.942 21.516 19.345 21.516 L 18.257 21.516 L 18.257 16.083 L 19.345 16.085 C 19.942 16.085 20.43 16.578 20.43 17.175 L 20.43 20.425 Z M 11.741 15.001 L 10.625 14.997 C 9.454 14.997 8.483 15.975 8.483 17.176 L 8.483 20.426 C 8.483 21.627 9.454 22.601 10.656 22.601 L 11.741 22.601 C 12.339 22.601 12.827 22.111 12.827 21.512 L 12.827 16.087 C 12.827 15.486 12.339 15.001 11.741 15.001 Z M 11.741 21.518 L 10.656 21.518 C 10.057 21.518 9.569 21.026 9.569 20.426 L 9.569 17.176 C 9.569 16.58 10.057 16.087 10.656 16.087 L 11.741 16.086 L 11.741 21.518 Z M 14.559 7.409 C 9.891 7.64 6.311 11.668 6.311 16.338 L 6.311 19.885 C 6.311 20.184 6.555 20.428 6.854 20.428 C 7.152 20.428 7.396 20.185 7.396 19.886 L 7.396 16.307 C 7.396 12.219 10.532 8.695 14.615 8.493 C 18.981 8.277 22.602 11.767 22.602 16.087 L 22.602 19.889 C 22.602 20.188 22.847 20.43 23.145 20.43 C 23.444 20.43 23.688 20.186 23.688 19.887 L 23.688 16.054 C 23.688 11.146 19.547 7.159 14.559 7.409 Z" style="fill: rgb(161, 149, 123);"/>
</svg>