<?xml version="1.0" encoding="utf-8"?>
<svg viewBox="0 0 30 30" width="30px" height="30px" xmlns="http://www.w3.org/2000/svg">
  <path d="M 20.659 7.093 L 9.341 7.093 C 8.09 7.093 7.077 8.106 7.077 9.325 L 7.077 20.643 C 7.077 21.894 8.09 22.907 9.341 22.907 L 20.659 22.907 C 21.91 22.907 22.923 21.894 22.923 20.643 L 22.923 9.325 C 22.923 8.137 21.907 7.093 20.659 7.093 Z M 21.791 20.707 C 21.791 21.331 21.283 21.839 20.659 21.839 L 9.341 21.839 C 8.716 21.839 8.209 21.331 8.209 20.707 L 8.209 9.388 C 8.209 8.764 8.716 8.256 9.341 8.256 L 20.659 8.256 C 21.283 8.256 21.791 8.764 21.791 9.388 L 21.791 20.707 Z M 15 16.179 C 14.533 16.179 14.151 16.561 14.151 17.028 L 14.151 17.877 L 15.849 17.877 L 15.849 17.028 C 15.849 16.561 15.467 16.179 15 16.179 Z M 13.302 12.783 C 12.99 12.783 12.736 13.038 12.736 13.35 L 12.736 15.047 C 12.736 15.36 12.989 15.613 13.302 15.613 C 13.613 15.613 13.868 15.358 13.868 15.047 L 13.868 13.35 C 13.868 13.038 13.613 12.783 13.302 12.783 Z M 16.697 12.783 C 16.386 12.783 16.132 13.038 16.132 13.35 L 16.132 15.047 C 16.132 15.36 16.385 15.613 16.697 15.613 C 17.009 15.613 17.264 15.358 17.264 15.047 L 17.264 13.35 C 17.264 13.038 17.009 12.783 16.697 12.783 Z M 18.371 10.52 C 18.366 10.52 18.362 10.52 18.358 10.52 L 11.629 10.52 C 11.454 10.52 11.285 10.59 11.159 10.711 C 10.041 11.815 9.341 13.346 9.341 15.016 C 9.341 16.717 10.041 18.249 11.161 19.352 C 11.289 19.476 11.463 19.543 11.643 19.543 L 18.358 19.543 C 18.538 19.543 18.71 19.476 18.84 19.352 C 19.959 18.28 20.659 16.749 20.659 15.016 C 20.659 13.314 19.959 11.783 18.839 10.679 C 18.682 10.559 18.544 10.52 18.371 10.52 Z M 18.176 18.411 L 11.823 18.411 C 10.949 17.517 10.473 16.289 10.473 15.047 C 10.473 13.771 10.954 12.57 11.822 11.684 L 18.175 11.684 C 19.05 12.578 19.527 13.774 19.527 15.047 C 19.527 16.325 19.047 17.528 18.176 18.411 Z" style="fill: rgb(161, 149, 123);"/>
</svg>
