<?xml version="1.0" encoding="utf-8"?>
<svg viewBox="0 0 30 30" width="30px" height="30px" xmlns="http://www.w3.org/2000/svg">
  <path d="M 15.246 15.687 C 14.726 15.687 14.304 16.11 14.304 16.63 L 14.304 17.337 C 14.304 17.467 14.41 17.572 14.539 17.572 L 15.953 17.572 C 16.083 17.572 16.189 17.467 16.189 17.337 L 16.189 16.63 C 16.189 16.111 15.767 15.687 15.246 15.687 Z M 15.718 17.101 L 14.775 17.101 L 14.775 16.63 C 14.775 16.371 14.987 16.158 15.246 16.158 C 15.505 16.158 15.718 16.369 15.718 16.63 L 15.718 17.101 Z M 13.361 13.33 C 13.231 13.33 13.125 13.436 13.125 13.565 L 13.125 15.451 C 13.125 15.581 13.231 15.687 13.361 15.687 C 13.491 15.687 13.597 15.582 13.597 15.451 L 13.597 13.565 C 13.597 13.436 13.49 13.33 13.361 13.33 Z M 17.132 13.33 C 17.002 13.33 16.896 13.435 16.896 13.565 L 16.896 15.451 C 16.896 15.582 17.002 15.687 17.132 15.687 C 17.263 15.687 17.367 15.582 17.367 15.451 L 17.367 13.565 C 17.367 13.436 17.262 13.33 17.132 13.33 Z M 19.96 8.59 L 10.533 8.59 C 9.492 8.59 8.647 9.433 8.647 10.449 L 8.647 19.876 C 8.647 20.918 9.492 21.762 10.533 21.762 L 19.96 21.762 C 21.002 21.762 21.846 20.918 21.846 19.876 L 21.846 10.449 C 21.846 9.46 21 8.59 19.96 8.59 Z M 21.374 19.93 C 21.374 20.71 20.74 21.344 19.96 21.344 L 10.533 21.344 C 9.753 21.344 9.119 20.71 9.119 19.93 L 9.119 10.502 C 9.119 9.721 9.753 9.087 10.533 9.087 L 19.96 9.087 C 20.74 9.087 21.374 9.721 21.374 10.502 L 21.374 19.93 Z M 18.054 11.444 L 18.053 11.916 C 18.076 11.916 18.1 11.925 18.115 11.94 C 19 12.814 19.489 13.952 19.489 15.215 C 19.489 16.454 19 17.617 18.118 18.489 C 18.099 18.506 18.072 18.517 18.043 18.517 L 12.45 18.517 C 12.42 18.517 12.394 18.506 12.379 18.493 C 11.492 17.616 11.004 16.453 11.004 15.215 C 11.004 13.976 11.492 12.813 12.375 11.942 C 12.394 11.924 12.417 11.914 12.45 11.914 L 18.051 11.914 L 18.054 11.444 L 12.439 11.444 C 12.292 11.444 12.152 11.503 12.047 11.604 C 11.115 12.522 10.533 13.799 10.533 15.189 C 10.533 16.606 11.115 17.882 12.048 18.801 C 12.156 18.904 12.3 18.96 12.451 18.96 L 18.043 18.96 C 18.193 18.96 18.338 18.904 18.444 18.801 C 19.377 17.908 19.96 16.632 19.96 15.189 C 19.96 13.772 19.378 12.496 18.444 11.577 C 18.313 11.476 18.199 11.444 18.054 11.444 Z" style="fill: rgb(161, 149, 123);"/>
</svg>
