<?xml version="1.0" encoding="utf-8"?>
<svg viewBox="0 0 30 30" width="30" height="30" xmlns="http://www.w3.org/2000/svg">
  <path d="M 10.916 16.486 C 10.916 16.157 11.183 15.892 11.512 15.892 C 11.841 15.892 12.106 16.157 12.106 16.486 C 12.106 16.814 11.841 17.079 11.512 17.079 C 11.183 17.079 10.916 16.814 10.916 16.486 Z M 19.636 16.486 C 19.636 16.814 19.371 17.079 19.042 17.079 C 18.712 17.079 18.447 16.814 18.447 16.486 C 18.447 16.157 18.712 15.892 19.042 15.892 C 19.371 15.892 19.636 16.157 19.636 16.486 Z M 10.131 14.229 L 10.991 11.369 C 11.242 10.532 12.015 9.959 12.888 9.959 L 17.665 9.959 C 18.538 9.959 19.311 10.532 19.561 11.369 L 20.421 14.229 C 21.138 14.636 21.618 15.405 21.618 16.288 L 21.618 20.637 C 21.618 20.856 21.439 21.033 21.221 21.033 C 21.003 21.033 20.825 20.856 20.825 20.637 L 20.825 19.451 L 9.727 19.451 L 9.727 20.637 C 9.727 20.856 9.551 21.033 9.332 21.033 C 9.112 21.033 8.935 20.856 8.935 20.637 L 8.935 16.288 C 8.935 15.405 9.417 14.636 10.131 14.229 Z M 11.049 13.929 C 11.134 13.919 11.223 13.915 11.313 13.915 L 19.24 13.915 C 19.329 13.915 19.418 13.919 19.505 13.929 L 18.804 11.596 C 18.652 11.094 18.189 10.75 17.665 10.75 L 12.888 10.75 C 12.363 10.75 11.9 11.094 11.749 11.596 L 11.049 13.929 Z M 9.727 16.288 L 9.727 18.661 L 20.825 18.661 L 20.825 16.288 C 20.825 15.604 20.39 15.018 19.776 14.799 L 19.768 14.801 L 19.765 14.795 C 19.6 14.738 19.424 14.705 19.24 14.705 L 11.313 14.705 C 11.13 14.705 10.953 14.738 10.789 14.795 L 10.786 14.801 L 10.776 14.799 C 10.163 15.018 9.727 15.604 9.727 16.288 Z" style="fill: rgb(161, 149, 123);"/>
</svg>
