<?xml version="1.0" encoding="utf-8"?>
<svg viewBox="0 0 30 30" width="30" height="30" xmlns="http://www.w3.org/2000/svg">
  <path d="M 9.236 16.309 C 9.236 15.874 9.589 15.524 10.023 15.524 C 10.459 15.524 10.809 15.874 10.809 16.309 C 10.809 16.743 10.459 17.093 10.023 17.093 C 9.589 17.093 9.236 16.743 9.236 16.309 Z M 20.764 16.309 C 20.764 16.743 20.414 17.093 19.979 17.093 C 19.543 17.093 19.192 16.743 19.192 16.309 C 19.192 15.874 19.543 15.524 19.979 15.524 C 20.414 15.524 20.764 15.874 20.764 16.309 Z M 8.198 13.325 L 9.335 9.544 C 9.666 8.437 10.688 7.68 11.843 7.68 L 18.158 7.68 C 19.313 7.68 20.335 8.437 20.666 9.544 L 21.803 13.325 C 22.75 13.863 23.385 14.88 23.385 16.047 L 23.385 21.797 C 23.385 22.087 23.148 22.321 22.86 22.321 C 22.572 22.321 22.336 22.087 22.336 21.797 L 22.336 20.229 L 7.663 20.229 L 7.663 21.797 C 7.663 22.087 7.431 22.321 7.141 22.321 C 6.851 22.321 6.616 22.087 6.616 21.797 L 6.616 16.047 C 6.616 14.88 7.254 13.863 8.198 13.325 Z M 9.411 12.929 C 9.524 12.916 9.642 12.91 9.76 12.91 L 20.241 12.91 C 20.359 12.91 20.476 12.916 20.591 12.929 L 19.664 9.844 C 19.464 9.18 18.852 8.726 18.158 8.726 L 11.843 8.726 C 11.148 8.726 10.536 9.18 10.337 9.844 L 9.411 12.929 Z M 7.663 16.047 L 7.663 19.185 L 22.336 19.185 L 22.336 16.047 C 22.336 15.143 21.761 14.369 20.95 14.079 L 20.939 14.082 L 20.935 14.073 C 20.717 13.998 20.484 13.955 20.241 13.955 L 9.76 13.955 C 9.518 13.955 9.284 13.998 9.067 14.073 L 9.063 14.082 L 9.05 14.079 C 8.24 14.369 7.663 15.143 7.663 16.047 Z" style="fill: rgb(161, 149, 123);"/>
</svg>
