<?xml version="1.0" encoding="utf-8"?>
<svg viewBox="0 0 30 30" width="30" height="30" xmlns="http://www.w3.org/2000/svg">
  <path d="M 22.474 17.799 L 21.306 13.711 C 21.101 12.996 20.447 12.503 19.705 12.503 L 18.616 12.503 C 17.873 12.503 17.22 12.996 17.016 13.711 L 15.847 17.799 C 15.773 18.063 15.973 18.329 16.248 18.329 L 17.496 18.329 L 17.496 21.242 C 17.496 21.471 17.683 21.658 17.913 21.658 C 18.142 21.658 18.328 21.471 18.328 21.242 L 18.328 18.329 L 19.992 18.329 L 19.992 21.242 C 19.992 21.471 20.179 21.658 20.409 21.658 C 20.638 21.658 20.825 21.471 20.825 21.242 L 20.825 18.329 L 22.073 18.329 C 22.349 18.329 22.549 18.063 22.474 17.799 Z M 16.799 17.497 L 17.816 13.939 C 17.918 13.583 18.245 13.336 18.617 13.336 L 19.706 13.336 C 20.077 13.336 20.403 13.582 20.505 13.939 L 21.523 17.497 L 16.799 17.497 Z M 19.161 11.672 C 20.081 11.672 20.825 10.927 20.825 10.007 C 20.825 9.087 20.081 8.343 19.161 8.343 C 18.24 8.343 17.496 9.087 17.496 10.007 C 17.496 10.927 18.24 11.672 19.161 11.672 Z M 19.161 9.175 C 19.62 9.175 19.992 9.548 19.992 10.007 C 19.992 10.467 19.62 10.839 19.161 10.839 C 18.703 10.839 18.328 10.467 18.328 10.007 C 18.328 9.548 18.704 9.175 19.161 9.175 Z M 10.839 12.503 L 9.174 12.503 C 8.255 12.503 7.51 13.25 7.51 14.168 L 7.51 16.665 C 7.51 17.124 7.882 17.497 8.342 17.497 L 8.342 21.242 C 8.342 21.47 8.528 21.658 8.758 21.658 C 8.988 21.658 9.174 21.47 9.174 21.242 L 9.174 17.497 L 10.839 17.497 L 10.839 21.242 C 10.839 21.47 11.026 21.658 11.254 21.658 C 11.484 21.658 11.67 21.47 11.67 21.242 L 11.67 17.497 C 12.13 17.497 12.503 17.124 12.503 16.665 L 12.503 14.168 C 12.503 13.25 11.757 12.503 10.839 12.503 Z M 11.67 16.665 L 8.342 16.665 L 8.342 14.168 C 8.342 13.71 8.715 13.336 9.174 13.336 L 10.839 13.336 C 11.297 13.336 11.67 13.71 11.67 14.168 L 11.67 16.665 Z M 10.006 11.672 C 10.927 11.672 11.67 10.927 11.67 10.007 C 11.67 9.087 10.927 8.343 10.006 8.343 C 9.085 8.343 8.342 9.087 8.342 10.007 C 8.342 10.927 9.087 11.672 10.006 11.672 Z M 10.006 9.175 C 10.465 9.175 10.839 9.548 10.839 10.007 C 10.839 10.467 10.464 10.839 10.006 10.839 C 9.549 10.839 9.174 10.467 9.174 10.007 C 9.174 9.548 9.548 9.175 10.006 9.175 Z M 14.168 8.343 C 13.939 8.343 13.751 8.529 13.751 8.758 L 13.751 21.242 C 13.751 21.47 13.939 21.658 14.168 21.658 C 14.396 21.658 14.584 21.471 14.584 21.242 L 14.584 8.758 C 14.584 8.529 14.396 8.343 14.168 8.343 Z" style="fill: rgb(161, 149, 123);"/>
</svg>
