<?xml version="1.0" encoding="utf-8"?>
<svg viewBox="0 0 30 30" width="30" height="30" xmlns="http://www.w3.org/2000/svg">
  <path d="M 7.438 16.717 C 7.438 16.146 7.9 15.688 8.469 15.688 C 9.041 15.688 9.5 16.146 9.5 16.717 C 9.5 17.287 9.041 17.746 8.469 17.746 C 7.9 17.746 7.438 17.287 7.438 16.717 Z M 22.561 16.717 C 22.561 17.287 22.102 17.746 21.531 17.746 C 20.959 17.746 20.5 17.287 20.5 16.717 C 20.5 16.146 20.959 15.688 21.531 15.688 C 22.102 15.688 22.561 16.146 22.561 16.717 Z M 6.075 12.802 L 7.567 7.841 C 8.001 6.39 9.342 5.396 10.857 5.396 L 19.143 5.396 C 20.658 5.396 21.999 6.39 22.433 7.841 L 23.924 12.802 C 25.167 13.509 26 14.842 26 16.374 L 26 23.918 C 26 24.297 25.689 24.605 25.311 24.605 C 24.934 24.605 24.623 24.297 24.623 23.918 L 24.623 21.861 L 5.373 21.861 L 5.373 23.918 C 5.373 24.297 5.068 24.605 4.688 24.605 C 4.308 24.605 4 24.297 4 23.918 L 4 16.374 C 4 14.842 4.837 13.509 6.075 12.802 Z M 7.666 12.283 C 7.814 12.266 7.97 12.257 8.125 12.257 L 21.875 12.257 C 22.03 12.257 22.183 12.266 22.334 12.283 L 21.119 8.236 C 20.855 7.365 20.052 6.768 19.143 6.768 L 10.857 6.768 C 9.946 6.768 9.143 7.365 8.881 8.236 L 7.666 12.283 Z M 5.373 16.374 L 5.373 20.491 L 24.623 20.491 L 24.623 16.374 C 24.623 15.187 23.869 14.172 22.806 13.792 L 22.791 13.796 L 22.786 13.784 C 22.499 13.685 22.193 13.63 21.875 13.63 L 8.125 13.63 C 7.807 13.63 7.5 13.685 7.215 13.784 L 7.21 13.796 L 7.193 13.792 C 6.131 14.172 5.373 15.187 5.373 16.374 Z" style="fill: rgb(161, 149, 123);"/>
</svg>