<?xml version="1.0" encoding="UTF-8"?>
<svg xmlns="http://www.w3.org/2000/svg" xmlns:xlink="http://www.w3.org/1999/xlink" width="30px" height="24px" viewBox="0 0 30 24" version="1.1">
<g id="surface1">
<path style=" stroke:none;fill-rule:nonzero;fill:rgb(0%,0%,0%);fill-opacity:1;" d="M 29.792969 7.734375 C 26.046875 3.773438 20.65625 1.5 15 1.5 C 9.34375 1.5 3.953125 3.773438 0.207031 7.734375 C -0.078125 8.035156 -0.0664062 8.511719 0.234375 8.792969 C 0.535156 9.078125 1.007812 9.066406 1.292969 8.765625 C 4.757812 5.101562 9.753906 3 15 3 C 20.246094 3 25.242188 5.101562 28.707031 8.765625 C 28.851562 8.921875 29.054688 9 29.25 9 C 29.433594 9 29.621094 8.933594 29.765625 8.796875 C 30.066406 8.511719 30.078125 8.035156 29.792969 7.734375 Z M 15 8.957031 C 11.355469 8.957031 7.96875 10.371094 5.464844 12.933594 C 5.175781 13.269531 5.179688 13.75 5.476562 14.035156 C 5.773438 14.324219 6.25 14.316406 6.535156 14.023438 C 8.757812 11.75 11.761719 10.5 15 10.5 C 18.238281 10.5 21.242188 11.75 23.464844 14.023438 C 23.609375 14.175781 23.804688 14.25 24 14.25 C 24.1875 14.25 24.378906 14.179688 24.523438 14.035156 C 24.820312 13.746094 24.828125 13.273438 24.535156 12.976562 C 22.03125 10.410156 18.648438 8.957031 15 8.957031 Z M 14.957031 16.457031 C 13.300781 16.457031 11.957031 17.800781 11.957031 19.457031 C 11.957031 21.117188 13.300781 22.457031 14.957031 22.457031 C 16.613281 22.457031 17.957031 21.117188 17.957031 19.457031 C 17.957031 17.800781 16.65625 16.457031 14.957031 16.457031 Z M 15 21 C 14.171875 21 13.5 20.328125 13.5 19.5 C 13.5 18.671875 14.175781 18 15 18 C 15.824219 18 16.5 18.671875 16.5 19.5 C 16.5 20.328125 15.824219 21 15 21 Z M 15 21 "/>
</g>
</svg>
